<svg width="33" height="34" viewBox="0 0 33 34" fill="none" xmlns="http://www.w3.org/2000/svg">
<path fill-rule="evenodd" clip-rule="evenodd" d="M3.66667 0.5C2.69421 0.5 1.76158 0.886308 1.07394 1.57394C0.386308 2.26158 0 3.19421 0 4.16667V29.8333C0 30.8058 0.386308 31.7384 1.07394 32.4261C1.76158 33.1137 2.69421 33.5 3.66667 33.5H29.3333C30.3058 33.5 31.2384 33.1137 31.9261 32.4261C32.6137 31.7384 33 30.8058 33 29.8333V4.16667C33 3.19421 32.6137 2.26158 31.9261 1.57394C31.2384 0.886308 30.3058 0.5 29.3333 0.5H3.66667ZM25.575 12.9593C25.919 12.6156 26.1124 12.1492 26.1125 11.6629C26.1127 11.1766 25.9197 10.7101 25.5759 10.3661C25.2322 10.0221 24.7658 9.82872 24.2795 9.82855C23.7932 9.82837 23.3267 10.0214 22.9827 10.3652L13.9077 19.4402L10.0192 15.5517C9.84895 15.3813 9.64685 15.2462 9.42441 15.154C9.20197 15.0617 8.96354 15.0142 8.72273 15.0141C8.2364 15.014 7.76992 15.207 7.42592 15.5508C7.08191 15.8945 6.88855 16.3609 6.88838 16.8472C6.88821 17.3335 7.08124 17.8 7.425 18.144L12.4813 23.2003C12.6686 23.3877 12.891 23.5363 13.1357 23.6377C13.3804 23.7391 13.6428 23.7913 13.9077 23.7913C14.1726 23.7913 14.4349 23.7391 14.6796 23.6377C14.9244 23.5363 15.1467 23.3877 15.334 23.2003L25.575 12.9593Z" fill="var(--primary)"/>
</svg>
