<svg width="233" height="138" viewBox="0 0 233 138" fill="none" xmlns="http://www.w3.org/2000/svg">
<path d="M56.6439 44C52.1571 44.0022 47.7543 45.2247 43.9018 47.5381C40.0493 49.8515 36.8905 53.1697 34.7598 57.1413C32.2809 56.8837 29.7758 57.1361 27.397 57.883C25.0181 58.63 22.8152 59.8559 20.9223 61.4862C19.0294 63.1165 17.4861 65.1171 16.3862 67.3663C15.2863 69.6155 14.6529 72.0662 14.5244 74.5694C14.396 77.0726 14.7752 79.5759 15.6391 81.927C16.5029 84.2781 17.8333 86.4279 19.5493 88.2455C21.2653 90.0631 23.331 91.5106 25.6208 92.4999C27.9106 93.4892 30.3765 93.9996 32.8686 94H56.6439C63.2362 94 69.5584 91.3661 74.2198 86.6777C78.8812 81.9893 81.5 75.6304 81.5 69C81.5 62.3696 78.8812 56.0107 74.2198 51.3223C69.5584 46.6339 63.2362 44 56.6439 44ZM56.6439 87.4783H32.8686C29.7158 87.5438 26.6662 86.347 24.3907 84.1511C22.1152 81.9552 20.8003 78.9401 20.7351 75.769C20.6698 72.598 21.8598 69.5307 24.043 67.2421C26.2263 64.9534 29.2241 63.6308 32.3769 63.5652C31.9833 65.3497 31.7858 67.1722 31.7879 69C31.7879 69.8648 32.1295 70.6942 32.7375 71.3058C33.3455 71.9173 34.1701 72.2609 35.03 72.2609C35.8898 72.2609 36.7145 71.9173 37.3225 71.3058C37.9305 70.6942 38.2721 69.8648 38.2721 69C38.2721 65.3453 39.3496 61.7728 41.3683 58.734C43.387 55.6953 46.2563 53.3269 49.6133 51.9283C52.9704 50.5297 56.6643 50.1638 60.2281 50.8768C63.7919 51.5898 67.0655 53.3497 69.6348 55.9339C72.2042 58.5181 73.9539 61.8106 74.6628 65.3951C75.3717 68.9795 75.0079 72.6949 73.6173 76.0713C72.2268 79.4478 69.872 82.3337 66.8508 84.3641C63.8296 86.3945 60.2776 87.4783 56.6439 87.4783Z" fill="#7CD2D7" fill-opacity="0.7"/>
<path d="M101.036 74.792H106.676V77H98.3V60.32H101.036V74.792ZM113.14 62.528V67.424H118.9V69.656H113.14V74.768H119.62V77H110.404V60.296H119.62V62.528H113.14ZM145.808 77H143.072L134.84 64.544V77H132.104V60.296H134.84L143.072 72.728V60.296H145.808V77ZM153.553 60.32V70.952C153.553 72.216 153.881 73.168 154.537 73.808C155.209 74.448 156.137 74.768 157.321 74.768C158.521 74.768 159.449 74.448 160.105 73.808C160.777 73.168 161.113 72.216 161.113 70.952V60.32H163.849V70.904C163.849 72.264 163.553 73.416 162.961 74.36C162.369 75.304 161.577 76.008 160.585 76.472C159.593 76.936 158.497 77.168 157.297 77.168C156.097 77.168 155.001 76.936 154.009 76.472C153.033 76.008 152.257 75.304 151.681 74.36C151.105 73.416 150.817 72.264 150.817 70.904V60.32H153.553ZM178.908 73.592H171.924L170.724 77H167.868L173.844 60.296H177.012L182.988 77H180.108L178.908 73.592ZM178.14 71.36L175.428 63.608L172.692 71.36H178.14ZM199.098 65.12C198.666 64.288 198.066 63.664 197.298 63.248C196.53 62.816 195.642 62.6 194.634 62.6C193.53 62.6 192.546 62.848 191.682 63.344C190.818 63.84 190.138 64.544 189.642 65.456C189.162 66.368 188.922 67.424 188.922 68.624C188.922 69.824 189.162 70.888 189.642 71.816C190.138 72.728 190.818 73.432 191.682 73.928C192.546 74.424 193.53 74.672 194.634 74.672C196.122 74.672 197.33 74.256 198.258 73.424C199.186 72.592 199.754 71.464 199.962 70.04H193.698V67.856H202.89V69.992C202.714 71.288 202.25 72.48 201.498 73.568C200.762 74.656 199.794 75.528 198.594 76.184C197.41 76.824 196.09 77.144 194.634 77.144C193.066 77.144 191.634 76.784 190.338 76.064C189.042 75.328 188.01 74.312 187.242 73.016C186.49 71.72 186.114 70.256 186.114 68.624C186.114 66.992 186.49 65.528 187.242 64.232C188.01 62.936 189.042 61.928 190.338 61.208C191.65 60.472 193.082 60.104 194.634 60.104C196.41 60.104 197.986 60.544 199.362 61.424C200.754 62.288 201.762 63.52 202.386 65.12H199.098ZM209.764 62.528V67.424H215.524V69.656H209.764V74.768H216.244V77H207.028V60.296H216.244V62.528H209.764Z" fill="#9B61F5"/>
<path d="M58.1279 45C53.9089 45.0021 49.7689 46.1757 46.1464 48.3966C42.5239 50.6175 39.5537 53.8029 37.5503 57.6157C35.2194 57.3684 32.8639 57.6106 30.627 58.3277C28.3902 59.0448 26.3188 60.2217 24.5389 61.7868C22.759 63.3519 21.3078 65.2724 20.2736 67.4316C19.2393 69.5909 18.6437 71.9436 18.523 74.3466C18.4022 76.7497 18.7588 79.1528 19.5711 81.4099C20.3833 83.667 21.6343 85.7307 23.2479 87.4757C24.8614 89.2206 26.8038 90.6102 28.9569 91.5599C31.1099 92.5096 33.4287 92.9996 35.772 93H58.1279C64.3266 93 70.2713 90.4714 74.6545 85.9706C79.0376 81.4697 81.5 75.3652 81.5 69C81.5 62.6348 79.0376 56.5303 74.6545 52.0294C70.2713 47.5286 64.3266 45 58.1279 45ZM58.1279 86.7391H35.772C32.8074 86.8021 29.9399 85.6532 27.8002 83.5451C25.6606 81.437 24.4241 78.5425 24.3628 75.4983C24.3015 72.454 25.4204 69.5095 27.4733 67.3124C29.5262 65.1153 32.345 63.8456 35.3096 63.7826C34.9395 65.4957 34.7538 67.2453 34.7558 69C34.7558 69.8302 35.077 70.6265 35.6487 71.2135C36.2204 71.8006 36.9958 72.1304 37.8043 72.1304C38.6128 72.1304 39.3882 71.8006 39.96 71.2135C40.5317 70.6265 40.8529 69.8302 40.8529 69C40.8529 65.4915 41.866 62.0619 43.7642 59.1447C45.6624 56.2275 48.3604 53.9538 51.517 52.6112C54.6736 51.2685 58.1471 50.9173 61.4981 51.6017C64.8491 52.2862 67.9272 53.9757 70.3432 56.4565C72.7591 58.9374 74.4044 62.0982 75.071 65.5393C75.7376 68.9803 75.3954 72.5471 74.0879 75.7885C72.7804 79.0299 70.5663 81.8003 67.7254 83.7495C64.8845 85.6987 61.5446 86.7391 58.1279 86.7391Z" fill="#9B61F5"/>
</svg>
