<svg width="68" height="50" viewBox="0 0 68 50" fill="none" xmlns="http://www.w3.org/2000/svg">
<path d="M42.9882 0C38.5013 0.00219438 34.0985 1.22472 30.246 3.53812C26.3935 5.85153 23.2347 9.16971 21.104 13.1413C18.6252 12.8837 16.1201 13.1361 13.7412 13.883C11.3624 14.63 9.15948 15.8559 7.26657 17.4862C5.37365 19.1165 3.83031 21.1171 2.73042 23.3663C1.63053 25.6155 0.997094 28.0662 0.868656 30.5694C0.740217 33.0726 1.11946 35.5759 1.98331 37.927C2.84715 40.2781 4.17755 42.4279 5.89355 44.2455C7.60954 46.0631 9.67527 47.5106 11.965 48.4999C14.2548 49.4892 16.7207 49.9996 19.2128 50H42.9882C49.5804 50 55.9027 47.3661 60.5641 42.6777C65.2255 37.9893 67.8442 31.6304 67.8442 25C67.8442 18.3696 65.2255 12.0107 60.5641 7.32233C55.9027 2.63392 49.5804 0 42.9882 0ZM42.9882 43.4783H19.2128C16.06 43.5438 13.0104 42.347 10.735 40.1511C8.45948 37.9552 7.1445 34.9401 7.07929 31.769C7.01408 28.598 8.204 25.5307 10.3873 23.2421C12.5705 20.9534 15.5683 19.6308 18.7211 19.5652C18.3275 21.3497 18.13 23.1722 18.1321 25C18.1321 25.8648 18.4737 26.6942 19.0817 27.3058C19.6897 27.9173 20.5144 28.2609 21.3742 28.2609C22.2341 28.2609 23.0587 27.9173 23.6667 27.3058C24.2747 26.6942 24.6163 25.8648 24.6163 25C24.6163 21.3453 25.6938 17.7728 27.7125 14.734C29.7313 11.6953 32.6006 9.32689 35.9576 7.92831C39.3146 6.52974 43.0086 6.16381 46.5724 6.87679C50.1362 7.58978 53.4097 9.34966 55.9791 11.9339C58.5484 14.5181 60.2982 17.8106 61.007 21.3951C61.7159 24.9795 61.3521 28.6949 59.9616 32.0713C58.5711 35.4478 56.2163 38.3337 53.195 40.3641C50.1738 42.3945 46.6218 43.4783 42.9882 43.4783Z" fill="#7CD2D7" fill-opacity="0.7"/>
<path d="M44.4721 1C40.2531 1.00211 36.1132 2.17573 32.4907 4.3966C28.8682 6.61747 25.898 9.80292 23.8945 13.6157C21.5636 13.3684 19.2081 13.6106 16.9713 14.3277C14.7344 15.0448 12.663 16.2217 10.8831 17.7868C9.10324 19.3519 7.65203 21.2724 6.61781 23.4316C5.58358 25.5909 4.98797 27.9436 4.8672 30.3466C4.74643 32.7497 5.10303 35.1528 5.9153 37.4099C6.72758 39.667 7.97855 41.7307 9.59209 43.4757C11.2056 45.2206 13.148 46.6102 15.3011 47.5599C17.4542 48.5096 19.7729 48.9996 22.1162 49H44.4721C50.6708 49 56.6156 46.4714 60.9987 41.9706C65.3818 37.4697 67.8442 31.3652 67.8442 25C67.8442 18.6348 65.3818 12.5303 60.9987 8.02944C56.6156 3.52856 50.6708 1 44.4721 1ZM44.4721 42.7391H22.1162C19.1516 42.8021 16.2841 41.6532 14.1445 39.5451C12.0048 37.437 10.7684 34.5425 10.707 31.4983C10.6457 28.454 11.7646 25.5095 13.8175 23.3124C15.8704 21.1153 18.6893 19.8456 21.6538 19.7826C21.2838 21.4957 21.098 23.2453 21.1 25C21.1 25.8302 21.4212 26.6265 21.9929 27.2135C22.5646 27.8006 23.34 28.1304 24.1486 28.1304C24.9571 28.1304 25.7325 27.8006 26.3042 27.2135C26.8759 26.6265 27.1971 25.8302 27.1971 25C27.1971 21.4915 28.2103 18.0619 30.1085 15.1447C32.0067 12.2275 34.7047 9.95381 37.8613 8.61118C41.0179 7.26855 44.4913 6.91725 47.8423 7.60172C51.1933 8.28619 54.2715 9.97568 56.6874 12.4565C59.1034 14.9374 60.7487 18.0982 61.4152 21.5393C62.0818 24.9803 61.7397 28.5471 60.4322 31.7885C59.1247 35.0299 56.9105 37.8003 54.0696 39.7495C51.2288 41.6987 47.8888 42.7391 44.4721 42.7391Z" fill="#9B61F5"/>
</svg>
