<svg width="23" height="23" viewBox="0 0 23 23" fill="none" xmlns="http://www.w3.org/2000/svg">
<path d="M8.65323 4.9705C9.92023 2.6985 10.5532 1.5625 11.5002 1.5625C12.4472 1.5625 13.0802 2.6985 14.3472 4.9705L14.6752 5.5585C15.0352 6.2045 15.2152 6.5275 15.4952 6.7405C15.7752 6.9535 16.1252 7.0325 16.8252 7.1905L17.4612 7.3345C19.9212 7.8915 21.1502 8.1695 21.4432 9.1105C21.7352 10.0505 20.8972 11.0315 19.2202 12.9925L18.7862 13.4995C18.3102 14.0565 18.0712 14.3355 17.9642 14.6795C17.8572 15.0245 17.8932 15.3965 17.9652 16.1395L18.0312 16.8165C18.2842 19.4335 18.4112 20.7415 17.6452 21.3225C16.8792 21.9045 15.7272 21.3735 13.4252 20.3135L12.8282 20.0395C12.1742 19.7375 11.8472 19.5875 11.5002 19.5875C11.1532 19.5875 10.8262 19.7375 10.1722 20.0395L9.57623 20.3135C7.27323 21.3735 6.12124 21.9035 5.35624 21.3235C4.58924 20.7415 4.71623 19.4335 4.96923 16.8165L5.03523 16.1405C5.10723 15.3965 5.14323 15.0245 5.03523 14.6805C4.92923 14.3355 4.69024 14.0565 4.21424 13.5005L3.78024 12.9925C2.10324 11.0325 1.26523 10.0515 1.55723 9.1105C1.85024 8.1695 3.08024 7.8905 5.54024 7.3345L6.17624 7.1905C6.87524 7.0325 7.22424 6.9535 7.50524 6.7405C7.78524 6.5275 7.96523 6.2045 8.32523 5.5585L8.65323 4.9705Z" stroke="#A0A0A0" stroke-width="2"/>
</svg>
