<svg width="18" height="19" viewBox="0 0 18 19" fill="none" xmlns="http://www.w3.org/2000/svg">
<path fill-rule="evenodd" clip-rule="evenodd" d="M2 0.845703C1.46957 0.845703 0.960859 1.05642 0.585786 1.43149C0.210714 1.80656 0 2.31527 0 2.8457V16.8457C0 17.3761 0.210714 17.8848 0.585786 18.2599C0.960859 18.635 1.46957 18.8457 2 18.8457H16C16.5304 18.8457 17.0391 18.635 17.4142 18.2599C17.7893 17.8848 18 17.3761 18 16.8457V2.8457C18 2.31527 17.7893 1.80656 17.4142 1.43149C17.0391 1.05642 16.5304 0.845703 16 0.845703H2ZM13.95 7.6417C14.1376 7.45419 14.2431 7.19983 14.2432 6.93456C14.2433 6.66929 14.138 6.41484 13.9505 6.2272C13.763 6.03956 13.5086 5.93409 13.2434 5.934C12.9781 5.93391 12.7236 6.03919 12.536 6.2267L7.586 11.1767L5.465 9.0557C5.37216 8.96279 5.26192 8.88908 5.14059 8.83877C5.01926 8.78846 4.8892 8.76255 4.75785 8.7625C4.49258 8.76241 4.23814 8.8677 4.0505 9.0552C3.86286 9.24271 3.75739 9.49708 3.7573 9.76235C3.7572 10.0276 3.86249 10.2821 4.05 10.4697L6.808 13.2277C6.91015 13.3299 7.03144 13.411 7.16493 13.4663C7.29842 13.5216 7.4415 13.5501 7.586 13.5501C7.7305 13.5501 7.87358 13.5216 8.00707 13.4663C8.14056 13.411 8.26185 13.3299 8.364 13.2277L13.95 7.6417Z" fill="#7CD2D7"/>
</svg>
