<svg width="21" height="20" viewBox="0 0 21 20" fill="none" xmlns="http://www.w3.org/2000/svg">
<path d="M13.7313 5.67031L13.8422 5.86066L14.0574 5.9073L19.4851 7.08323C19.4852 7.08324 19.4852 7.08324 19.4852 7.08324C19.6133 7.11109 19.7318 7.17201 19.829 7.25995C19.9263 7.3479 19.9987 7.4598 20.0392 7.58449C20.0797 7.70918 20.0868 7.8423 20.0598 7.97058C20.0328 8.09881 19.9727 8.21773 19.8855 8.31549C19.8854 8.31554 19.8854 8.31559 19.8853 8.31563L16.1855 12.4565L16.0386 12.6208L16.0609 12.8401L16.6209 18.3651L16.6209 18.3652C16.6341 18.4957 16.6129 18.6274 16.5593 18.7472C16.5058 18.8669 16.4217 18.9706 16.3155 19.0477C16.2094 19.1248 16.0849 19.1727 15.9544 19.1867C15.824 19.2006 15.6921 19.1801 15.5721 19.1271L15.572 19.1271L10.49 16.8871L10.2883 16.7982L10.0866 16.8871L5.00465 19.1271L5.00456 19.1271C4.88451 19.1801 4.75267 19.2006 4.62221 19.1867C4.49175 19.1727 4.36723 19.1248 4.26108 19.0477C4.15493 18.9706 4.07087 18.8669 4.0173 18.7472C3.96372 18.6274 3.9425 18.4957 3.95576 18.3652L3.95577 18.3651L4.51577 12.8401L4.53799 12.6208L4.39112 12.4564L0.691124 8.31645L0.690989 8.3163C0.603526 8.21851 0.543242 8.0995 0.516157 7.97113C0.489072 7.84276 0.496133 7.70954 0.536635 7.58475C0.577137 7.45997 0.649663 7.34799 0.746973 7.26C0.844283 7.172 0.962971 7.11108 1.09119 7.0833L6.51919 5.9073L6.73447 5.86066L6.84536 5.67031L9.64032 0.872381C9.70634 0.759076 9.80092 0.665065 9.91463 0.599725C10.0283 0.534385 10.1572 0.5 10.2883 0.5C10.4195 0.5 10.5483 0.534385 10.662 0.599725C10.7757 0.665065 10.8703 0.759076 10.9363 0.872381L13.7313 5.67031Z" stroke="#C6C5C5"/>
</svg>
